<?xml version="1.0" encoding="UTF-8"?>
<svg width="120px" height="110px" viewBox="0 0 120 110" version="1.1" xmlns="http://www.w3.org/2000/svg">
    <!-- Generator: Sketch 51.2 (57519) - http://www.bohemiancoding.com/sketch -->
    <title>wultra-square</title>
    <desc>Created with Sketch.</desc>
    <defs></defs>
    <g id="Page-1" stroke="none" stroke-width="1" fill="none" fill-rule="evenodd">
        <g id="wultra-square" fill="#FFFFFF" fill-rule="nonzero">
            <path d="M115.625,9.258 C118.249,17.163 119.572,25.429 119.572,33.757 C119.572,68.256 96.809,98.64 63.782,108.347 L60.073,109.437 L56.363,108.347 C23.337,98.64 0.574,68.256 0.574,33.757 C0.574,25.429 1.897,17.163 4.52,9.258 L7.511,0.247 L45.762,13.402 L17.006,13.402 C14.882,19.802 13.729,26.644 13.729,33.757 C13.729,63.091 33.287,87.853 60.073,95.726 C86.859,87.853 106.417,63.091 106.417,33.757 C106.417,26.644 105.264,19.802 103.14,13.402 L72.569,13.402 L112.634,0.247 L115.625,9.258" id="Fill-8"></path>
            <path d="M60.073,109.437 L56.363,108.347 C23.337,98.64 0.574,68.256 0.574,33.757 C0.574,25.429 1.897,17.163 4.52,9.258 L7.511,0.247 L45.762,13.402 L17.006,13.402 C14.882,19.802 13.729,26.644 13.729,33.757 C13.729,63.091 33.287,87.853 60.073,95.726 L60.073,109.437" id="Fill-9"></path>
            <polyline id="Fill-10" points="51.91 103.074 68.236 103.074 68.236 46.838 60.173 30.512 51.91 46.838 51.91 103.074"></polyline>
            <polyline id="Fill-11" points="51.91 103.074 60.073 103.074 60.073 30.71 51.91 46.838 51.91 103.074"></polyline>
        </g>
    </g>
</svg>